<svg width="196" height="18" viewBox="0 0 196 18" fill="none" xmlns="http://www.w3.org/2000/svg">
<mask id="path-1-outside-1" maskUnits="userSpaceOnUse" x="-0.417969" y="-0.0898438" width="196" height="18" fill="black">
<rect fill="white" x="-0.417969" y="-0.0898438" width="196" height="18"/>
<path d="M0.582031 8.89766C0.582031 7.36766 0.934531 5.99516 1.63953 4.78016C2.35953 3.56516 3.32703 2.62016 4.54203 1.94516C5.77203 1.25516 7.11453 0.910156 8.56953 0.910156C10.2345 0.910156 11.712 1.32266 13.002 2.14766C14.307 2.95766 15.252 4.11266 15.837 5.61266H12.7545C12.3495 4.78766 11.787 4.17266 11.067 3.76766C10.347 3.36266 9.51453 3.16016 8.56953 3.16016C7.53453 3.16016 6.61203 3.39266 5.80203 3.85766C4.99203 4.32266 4.35453 4.99016 3.88953 5.86016C3.43953 6.73016 3.21453 7.74266 3.21453 8.89766C3.21453 10.0527 3.43953 11.0652 3.88953 11.9352C4.35453 12.8052 4.99203 13.4802 5.80203 13.9602C6.61203 14.4252 7.53453 14.6577 8.56953 14.6577C9.51453 14.6577 10.347 14.4552 11.067 14.0502C11.787 13.6452 12.3495 13.0302 12.7545 12.2052H15.837C15.252 13.7052 14.307 14.8602 13.002 15.6702C11.712 16.4802 10.2345 16.8852 8.56953 16.8852C7.09953 16.8852 5.75703 16.5477 4.54203 15.8727C3.32703 15.1827 2.35953 14.2302 1.63953 13.0152C0.934531 11.8002 0.582031 10.4277 0.582031 8.89766Z"/>
<path d="M27.3219 16.9077C25.8669 16.9077 24.5244 16.5702 23.2944 15.8952C22.0794 15.2052 21.1119 14.2527 20.3919 13.0377C19.6869 11.8077 19.3344 10.4277 19.3344 8.89766C19.3344 7.36766 19.6869 5.99516 20.3919 4.78016C21.1119 3.56516 22.0794 2.62016 23.2944 1.94516C24.5244 1.25516 25.8669 0.910156 27.3219 0.910156C28.7919 0.910156 30.1344 1.25516 31.3494 1.94516C32.5794 2.62016 33.5469 3.56516 34.2519 4.78016C34.9569 5.99516 35.3094 7.36766 35.3094 8.89766C35.3094 10.4277 34.9569 11.8077 34.2519 13.0377C33.5469 14.2527 32.5794 15.2052 31.3494 15.8952C30.1344 16.5702 28.7919 16.9077 27.3219 16.9077ZM27.3219 14.6802C28.3569 14.6802 29.2794 14.4477 30.0894 13.9827C30.8994 13.5027 31.5294 12.8277 31.9794 11.9577C32.4444 11.0727 32.6769 10.0527 32.6769 8.89766C32.6769 7.74266 32.4444 6.73016 31.9794 5.86016C31.5294 4.99016 30.8994 4.32266 30.0894 3.85766C29.2794 3.39266 28.3569 3.16016 27.3219 3.16016C26.2869 3.16016 25.3644 3.39266 24.5544 3.85766C23.7444 4.32266 23.1069 4.99016 22.6419 5.86016C22.1919 6.73016 21.9669 7.74266 21.9669 8.89766C21.9669 10.0527 22.1919 11.0727 22.6419 11.9577C23.1069 12.8277 23.7444 13.5027 24.5544 13.9827C25.3644 14.4477 26.2869 14.6802 27.3219 14.6802Z"/>
<path d="M44.2909 1.11266C45.9559 1.11266 47.4109 1.43516 48.6559 2.08016C49.9159 2.71016 50.8834 3.62516 51.5584 4.82516C52.2484 6.01016 52.5934 7.39766 52.5934 8.98766C52.5934 10.5777 52.2484 11.9577 51.5584 13.1277C50.8834 14.2977 49.9159 15.1977 48.6559 15.8277C47.4109 16.4427 45.9559 16.7502 44.2909 16.7502H39.1834V1.11266H44.2909ZM44.2909 14.6577C46.1209 14.6577 47.5234 14.1627 48.4984 13.1727C49.4734 12.1827 49.9609 10.7877 49.9609 8.98766C49.9609 7.17266 49.4734 5.75516 48.4984 4.73516C47.5234 3.71516 46.1209 3.20516 44.2909 3.20516H41.7484V14.6577H44.2909Z"/>
<path d="M59.0506 3.18266V7.77266H64.4506V9.86516H59.0506V14.6577H65.1256V16.7502H56.4856V1.09016H65.1256V3.18266H59.0506Z"/>
<path d="M75.9746 8.89766C75.9746 7.36766 76.3271 5.99516 77.0321 4.78016C77.7521 3.56516 78.7196 2.62016 79.9346 1.94516C81.1646 1.25516 82.5071 0.910156 83.9621 0.910156C85.6271 0.910156 87.1046 1.32266 88.3946 2.14766C89.6996 2.95766 90.6446 4.11266 91.2296 5.61266H88.1471C87.7421 4.78766 87.1796 4.17266 86.4596 3.76766C85.7396 3.36266 84.9071 3.16016 83.9621 3.16016C82.9271 3.16016 82.0046 3.39266 81.1946 3.85766C80.3846 4.32266 79.7471 4.99016 79.2821 5.86016C78.8321 6.73016 78.6071 7.74266 78.6071 8.89766C78.6071 10.0527 78.8321 11.0652 79.2821 11.9352C79.7471 12.8052 80.3846 13.4802 81.1946 13.9602C82.0046 14.4252 82.9271 14.6577 83.9621 14.6577C84.9071 14.6577 85.7396 14.4552 86.4596 14.0502C87.1796 13.6452 87.7421 13.0302 88.1471 12.2052H91.2296C90.6446 13.7052 89.6996 14.8602 88.3946 15.6702C87.1046 16.4802 85.6271 16.8852 83.9621 16.8852C82.4921 16.8852 81.1496 16.5477 79.9346 15.8727C78.7196 15.1827 77.7521 14.2302 77.0321 13.0152C76.3271 11.8002 75.9746 10.4277 75.9746 8.89766Z"/>
<path d="M105.009 13.5552H98.4619L97.3369 16.7502H94.6594L100.262 1.09016H103.232L108.834 16.7502H106.134L105.009 13.5552ZM104.289 11.4627L101.747 4.19516L99.1819 11.4627H104.289Z"/>
<path d="M122.723 1.11266V3.20516H118.56V16.7502H115.995V3.20516H111.81V1.11266H122.723Z"/>
<path d="M136.098 13.5552H129.551L128.426 16.7502H125.748L131.351 1.09016H134.321L139.923 16.7502H137.223L136.098 13.5552ZM135.378 11.4627L132.836 4.19516L130.271 11.4627H135.378Z"/>
<path d="M146.274 14.6802H151.562V16.7502H143.709V1.11266H146.274V14.6802Z"/>
<path d="M166.644 1.11266L161.469 11.0802V16.7502H158.904V11.0802L153.707 1.11266H156.564L160.187 8.78516L163.809 1.11266H166.644Z"/>
<path d="M175.182 16.9077C174.132 16.9077 173.187 16.7277 172.347 16.3677C171.507 15.9927 170.847 15.4677 170.367 14.7927C169.887 14.1177 169.647 13.3302 169.647 12.4302H172.392C172.452 13.1052 172.715 13.6602 173.18 14.0952C173.66 14.5302 174.327 14.7477 175.182 14.7477C176.067 14.7477 176.757 14.5377 177.252 14.1177C177.747 13.6827 177.995 13.1277 177.995 12.4527C177.995 11.9277 177.837 11.5002 177.522 11.1702C177.222 10.8402 176.84 10.5852 176.375 10.4052C175.925 10.2252 175.295 10.0302 174.485 9.82016C173.465 9.55016 172.632 9.28016 171.987 9.01016C171.357 8.72516 170.817 8.29016 170.367 7.70516C169.917 7.12016 169.692 6.34016 169.692 5.36516C169.692 4.46516 169.917 3.67766 170.367 3.00266C170.817 2.32766 171.447 1.81016 172.257 1.45016C173.067 1.09016 174.005 0.910156 175.07 0.910156C176.585 0.910156 177.822 1.29266 178.782 2.05766C179.757 2.80766 180.297 3.84266 180.402 5.16266H177.567C177.522 4.59266 177.252 4.10516 176.757 3.70016C176.262 3.29516 175.61 3.09266 174.8 3.09266C174.065 3.09266 173.465 3.28016 173 3.65516C172.535 4.03016 172.302 4.57016 172.302 5.27516C172.302 5.75516 172.445 6.15266 172.73 6.46766C173.03 6.76766 173.405 7.00766 173.855 7.18766C174.305 7.36766 174.92 7.56266 175.7 7.77266C176.735 8.05766 177.575 8.34266 178.22 8.62766C178.88 8.91266 179.435 9.35515 179.885 9.95516C180.35 10.5402 180.582 11.3277 180.582 12.3177C180.582 13.1127 180.365 13.8627 179.93 14.5677C179.51 15.2727 178.887 15.8427 178.062 16.2777C177.252 16.6977 176.292 16.9077 175.182 16.9077Z"/>
<path d="M195.061 1.11266V3.20516H190.899V16.7502H188.334V3.20516H184.149V1.11266H195.061Z"/>
</mask>
<path d="M0.582031 8.89766C0.582031 7.36766 0.934531 5.99516 1.63953 4.78016C2.35953 3.56516 3.32703 2.62016 4.54203 1.94516C5.77203 1.25516 7.11453 0.910156 8.56953 0.910156C10.2345 0.910156 11.712 1.32266 13.002 2.14766C14.307 2.95766 15.252 4.11266 15.837 5.61266H12.7545C12.3495 4.78766 11.787 4.17266 11.067 3.76766C10.347 3.36266 9.51453 3.16016 8.56953 3.16016C7.53453 3.16016 6.61203 3.39266 5.80203 3.85766C4.99203 4.32266 4.35453 4.99016 3.88953 5.86016C3.43953 6.73016 3.21453 7.74266 3.21453 8.89766C3.21453 10.0527 3.43953 11.0652 3.88953 11.9352C4.35453 12.8052 4.99203 13.4802 5.80203 13.9602C6.61203 14.4252 7.53453 14.6577 8.56953 14.6577C9.51453 14.6577 10.347 14.4552 11.067 14.0502C11.787 13.6452 12.3495 13.0302 12.7545 12.2052H15.837C15.252 13.7052 14.307 14.8602 13.002 15.6702C11.712 16.4802 10.2345 16.8852 8.56953 16.8852C7.09953 16.8852 5.75703 16.5477 4.54203 15.8727C3.32703 15.1827 2.35953 14.2302 1.63953 13.0152C0.934531 11.8002 0.582031 10.4277 0.582031 8.89766Z" fill="#1F252A"/>
<path d="M27.3219 16.9077C25.8669 16.9077 24.5244 16.5702 23.2944 15.8952C22.0794 15.2052 21.1119 14.2527 20.3919 13.0377C19.6869 11.8077 19.3344 10.4277 19.3344 8.89766C19.3344 7.36766 19.6869 5.99516 20.3919 4.78016C21.1119 3.56516 22.0794 2.62016 23.2944 1.94516C24.5244 1.25516 25.8669 0.910156 27.3219 0.910156C28.7919 0.910156 30.1344 1.25516 31.3494 1.94516C32.5794 2.62016 33.5469 3.56516 34.2519 4.78016C34.9569 5.99516 35.3094 7.36766 35.3094 8.89766C35.3094 10.4277 34.9569 11.8077 34.2519 13.0377C33.5469 14.2527 32.5794 15.2052 31.3494 15.8952C30.1344 16.5702 28.7919 16.9077 27.3219 16.9077ZM27.3219 14.6802C28.3569 14.6802 29.2794 14.4477 30.0894 13.9827C30.8994 13.5027 31.5294 12.8277 31.9794 11.9577C32.4444 11.0727 32.6769 10.0527 32.6769 8.89766C32.6769 7.74266 32.4444 6.73016 31.9794 5.86016C31.5294 4.99016 30.8994 4.32266 30.0894 3.85766C29.2794 3.39266 28.3569 3.16016 27.3219 3.16016C26.2869 3.16016 25.3644 3.39266 24.5544 3.85766C23.7444 4.32266 23.1069 4.99016 22.6419 5.86016C22.1919 6.73016 21.9669 7.74266 21.9669 8.89766C21.9669 10.0527 22.1919 11.0727 22.6419 11.9577C23.1069 12.8277 23.7444 13.5027 24.5544 13.9827C25.3644 14.4477 26.2869 14.6802 27.3219 14.6802Z" fill="#1F252A"/>
<path d="M44.2909 1.11266C45.9559 1.11266 47.4109 1.43516 48.6559 2.08016C49.9159 2.71016 50.8834 3.62516 51.5584 4.82516C52.2484 6.01016 52.5934 7.39766 52.5934 8.98766C52.5934 10.5777 52.2484 11.9577 51.5584 13.1277C50.8834 14.2977 49.9159 15.1977 48.6559 15.8277C47.4109 16.4427 45.9559 16.7502 44.2909 16.7502H39.1834V1.11266H44.2909ZM44.2909 14.6577C46.1209 14.6577 47.5234 14.1627 48.4984 13.1727C49.4734 12.1827 49.9609 10.7877 49.9609 8.98766C49.9609 7.17266 49.4734 5.75516 48.4984 4.73516C47.5234 3.71516 46.1209 3.20516 44.2909 3.20516H41.7484V14.6577H44.2909Z" fill="#1F252A"/>
<path d="M59.0506 3.18266V7.77266H64.4506V9.86516H59.0506V14.6577H65.1256V16.7502H56.4856V1.09016H65.1256V3.18266H59.0506Z" fill="#1F252A"/>
<path d="M75.9746 8.89766C75.9746 7.36766 76.3271 5.99516 77.0321 4.78016C77.7521 3.56516 78.7196 2.62016 79.9346 1.94516C81.1646 1.25516 82.5071 0.910156 83.9621 0.910156C85.6271 0.910156 87.1046 1.32266 88.3946 2.14766C89.6996 2.95766 90.6446 4.11266 91.2296 5.61266H88.1471C87.7421 4.78766 87.1796 4.17266 86.4596 3.76766C85.7396 3.36266 84.9071 3.16016 83.9621 3.16016C82.9271 3.16016 82.0046 3.39266 81.1946 3.85766C80.3846 4.32266 79.7471 4.99016 79.2821 5.86016C78.8321 6.73016 78.6071 7.74266 78.6071 8.89766C78.6071 10.0527 78.8321 11.0652 79.2821 11.9352C79.7471 12.8052 80.3846 13.4802 81.1946 13.9602C82.0046 14.4252 82.9271 14.6577 83.9621 14.6577C84.9071 14.6577 85.7396 14.4552 86.4596 14.0502C87.1796 13.6452 87.7421 13.0302 88.1471 12.2052H91.2296C90.6446 13.7052 89.6996 14.8602 88.3946 15.6702C87.1046 16.4802 85.6271 16.8852 83.9621 16.8852C82.4921 16.8852 81.1496 16.5477 79.9346 15.8727C78.7196 15.1827 77.7521 14.2302 77.0321 13.0152C76.3271 11.8002 75.9746 10.4277 75.9746 8.89766Z" fill="#1F252A"/>
<path d="M105.009 13.5552H98.4619L97.3369 16.7502H94.6594L100.262 1.09016H103.232L108.834 16.7502H106.134L105.009 13.5552ZM104.289 11.4627L101.747 4.19516L99.1819 11.4627H104.289Z" fill="#1F252A"/>
<path d="M122.723 1.11266V3.20516H118.56V16.7502H115.995V3.20516H111.81V1.11266H122.723Z" fill="#1F252A"/>
<path d="M136.098 13.5552H129.551L128.426 16.7502H125.748L131.351 1.09016H134.321L139.923 16.7502H137.223L136.098 13.5552ZM135.378 11.4627L132.836 4.19516L130.271 11.4627H135.378Z" fill="#1F252A"/>
<path d="M146.274 14.6802H151.562V16.7502H143.709V1.11266H146.274V14.6802Z" fill="#1F252A"/>
<path d="M166.644 1.11266L161.469 11.0802V16.7502H158.904V11.0802L153.707 1.11266H156.564L160.187 8.78516L163.809 1.11266H166.644Z" fill="#1F252A"/>
<path d="M175.182 16.9077C174.132 16.9077 173.187 16.7277 172.347 16.3677C171.507 15.9927 170.847 15.4677 170.367 14.7927C169.887 14.1177 169.647 13.3302 169.647 12.4302H172.392C172.452 13.1052 172.715 13.6602 173.18 14.0952C173.66 14.5302 174.327 14.7477 175.182 14.7477C176.067 14.7477 176.757 14.5377 177.252 14.1177C177.747 13.6827 177.995 13.1277 177.995 12.4527C177.995 11.9277 177.837 11.5002 177.522 11.1702C177.222 10.8402 176.84 10.5852 176.375 10.4052C175.925 10.2252 175.295 10.0302 174.485 9.82016C173.465 9.55016 172.632 9.28016 171.987 9.01016C171.357 8.72516 170.817 8.29016 170.367 7.70516C169.917 7.12016 169.692 6.34016 169.692 5.36516C169.692 4.46516 169.917 3.67766 170.367 3.00266C170.817 2.32766 171.447 1.81016 172.257 1.45016C173.067 1.09016 174.005 0.910156 175.07 0.910156C176.585 0.910156 177.822 1.29266 178.782 2.05766C179.757 2.80766 180.297 3.84266 180.402 5.16266H177.567C177.522 4.59266 177.252 4.10516 176.757 3.70016C176.262 3.29516 175.61 3.09266 174.8 3.09266C174.065 3.09266 173.465 3.28016 173 3.65516C172.535 4.03016 172.302 4.57016 172.302 5.27516C172.302 5.75516 172.445 6.15266 172.73 6.46766C173.03 6.76766 173.405 7.00766 173.855 7.18766C174.305 7.36766 174.92 7.56266 175.7 7.77266C176.735 8.05766 177.575 8.34266 178.22 8.62766C178.88 8.91266 179.435 9.35515 179.885 9.95516C180.35 10.5402 180.582 11.3277 180.582 12.3177C180.582 13.1127 180.365 13.8627 179.93 14.5677C179.51 15.2727 178.887 15.8427 178.062 16.2777C177.252 16.6977 176.292 16.9077 175.182 16.9077Z" fill="#1F252A"/>
<path d="M195.061 1.11266V3.20516H190.899V16.7502H188.334V3.20516H184.149V1.11266H195.061Z" fill="#1F252A"/>
<path d="M0.582031 8.89766C0.582031 7.36766 0.934531 5.99516 1.63953 4.78016C2.35953 3.56516 3.32703 2.62016 4.54203 1.94516C5.77203 1.25516 7.11453 0.910156 8.56953 0.910156C10.2345 0.910156 11.712 1.32266 13.002 2.14766C14.307 2.95766 15.252 4.11266 15.837 5.61266H12.7545C12.3495 4.78766 11.787 4.17266 11.067 3.76766C10.347 3.36266 9.51453 3.16016 8.56953 3.16016C7.53453 3.16016 6.61203 3.39266 5.80203 3.85766C4.99203 4.32266 4.35453 4.99016 3.88953 5.86016C3.43953 6.73016 3.21453 7.74266 3.21453 8.89766C3.21453 10.0527 3.43953 11.0652 3.88953 11.9352C4.35453 12.8052 4.99203 13.4802 5.80203 13.9602C6.61203 14.4252 7.53453 14.6577 8.56953 14.6577C9.51453 14.6577 10.347 14.4552 11.067 14.0502C11.787 13.6452 12.3495 13.0302 12.7545 12.2052H15.837C15.252 13.7052 14.307 14.8602 13.002 15.6702C11.712 16.4802 10.2345 16.8852 8.56953 16.8852C7.09953 16.8852 5.75703 16.5477 4.54203 15.8727C3.32703 15.1827 2.35953 14.2302 1.63953 13.0152C0.934531 11.8002 0.582031 10.4277 0.582031 8.89766Z" stroke="#1F252A" stroke-width="0.2" mask="url(#path-1-outside-1)"/>
<path d="M27.3219 16.9077C25.8669 16.9077 24.5244 16.5702 23.2944 15.8952C22.0794 15.2052 21.1119 14.2527 20.3919 13.0377C19.6869 11.8077 19.3344 10.4277 19.3344 8.89766C19.3344 7.36766 19.6869 5.99516 20.3919 4.78016C21.1119 3.56516 22.0794 2.62016 23.2944 1.94516C24.5244 1.25516 25.8669 0.910156 27.3219 0.910156C28.7919 0.910156 30.1344 1.25516 31.3494 1.94516C32.5794 2.62016 33.5469 3.56516 34.2519 4.78016C34.9569 5.99516 35.3094 7.36766 35.3094 8.89766C35.3094 10.4277 34.9569 11.8077 34.2519 13.0377C33.5469 14.2527 32.5794 15.2052 31.3494 15.8952C30.1344 16.5702 28.7919 16.9077 27.3219 16.9077ZM27.3219 14.6802C28.3569 14.6802 29.2794 14.4477 30.0894 13.9827C30.8994 13.5027 31.5294 12.8277 31.9794 11.9577C32.4444 11.0727 32.6769 10.0527 32.6769 8.89766C32.6769 7.74266 32.4444 6.73016 31.9794 5.86016C31.5294 4.99016 30.8994 4.32266 30.0894 3.85766C29.2794 3.39266 28.3569 3.16016 27.3219 3.16016C26.2869 3.16016 25.3644 3.39266 24.5544 3.85766C23.7444 4.32266 23.1069 4.99016 22.6419 5.86016C22.1919 6.73016 21.9669 7.74266 21.9669 8.89766C21.9669 10.0527 22.1919 11.0727 22.6419 11.9577C23.1069 12.8277 23.7444 13.5027 24.5544 13.9827C25.3644 14.4477 26.2869 14.6802 27.3219 14.6802Z" stroke="#1F252A" stroke-width="0.2" mask="url(#path-1-outside-1)"/>
<path d="M44.2909 1.11266C45.9559 1.11266 47.4109 1.43516 48.6559 2.08016C49.9159 2.71016 50.8834 3.62516 51.5584 4.82516C52.2484 6.01016 52.5934 7.39766 52.5934 8.98766C52.5934 10.5777 52.2484 11.9577 51.5584 13.1277C50.8834 14.2977 49.9159 15.1977 48.6559 15.8277C47.4109 16.4427 45.9559 16.7502 44.2909 16.7502H39.1834V1.11266H44.2909ZM44.2909 14.6577C46.1209 14.6577 47.5234 14.1627 48.4984 13.1727C49.4734 12.1827 49.9609 10.7877 49.9609 8.98766C49.9609 7.17266 49.4734 5.75516 48.4984 4.73516C47.5234 3.71516 46.1209 3.20516 44.2909 3.20516H41.7484V14.6577H44.2909Z" stroke="#1F252A" stroke-width="0.2" mask="url(#path-1-outside-1)"/>
<path d="M59.0506 3.18266V7.77266H64.4506V9.86516H59.0506V14.6577H65.1256V16.7502H56.4856V1.09016H65.1256V3.18266H59.0506Z" stroke="#1F252A" stroke-width="0.2" mask="url(#path-1-outside-1)"/>
<path d="M75.9746 8.89766C75.9746 7.36766 76.3271 5.99516 77.0321 4.78016C77.7521 3.56516 78.7196 2.62016 79.9346 1.94516C81.1646 1.25516 82.5071 0.910156 83.9621 0.910156C85.6271 0.910156 87.1046 1.32266 88.3946 2.14766C89.6996 2.95766 90.6446 4.11266 91.2296 5.61266H88.1471C87.7421 4.78766 87.1796 4.17266 86.4596 3.76766C85.7396 3.36266 84.9071 3.16016 83.9621 3.16016C82.9271 3.16016 82.0046 3.39266 81.1946 3.85766C80.3846 4.32266 79.7471 4.99016 79.2821 5.86016C78.8321 6.73016 78.6071 7.74266 78.6071 8.89766C78.6071 10.0527 78.8321 11.0652 79.2821 11.9352C79.7471 12.8052 80.3846 13.4802 81.1946 13.9602C82.0046 14.4252 82.9271 14.6577 83.9621 14.6577C84.9071 14.6577 85.7396 14.4552 86.4596 14.0502C87.1796 13.6452 87.7421 13.0302 88.1471 12.2052H91.2296C90.6446 13.7052 89.6996 14.8602 88.3946 15.6702C87.1046 16.4802 85.6271 16.8852 83.9621 16.8852C82.4921 16.8852 81.1496 16.5477 79.9346 15.8727C78.7196 15.1827 77.7521 14.2302 77.0321 13.0152C76.3271 11.8002 75.9746 10.4277 75.9746 8.89766Z" stroke="#1F252A" stroke-width="0.2" mask="url(#path-1-outside-1)"/>
<path d="M105.009 13.5552H98.4619L97.3369 16.7502H94.6594L100.262 1.09016H103.232L108.834 16.7502H106.134L105.009 13.5552ZM104.289 11.4627L101.747 4.19516L99.1819 11.4627H104.289Z" stroke="#1F252A" stroke-width="0.2" mask="url(#path-1-outside-1)"/>
<path d="M122.723 1.11266V3.20516H118.56V16.7502H115.995V3.20516H111.81V1.11266H122.723Z" stroke="#1F252A" stroke-width="0.2" mask="url(#path-1-outside-1)"/>
<path d="M136.098 13.5552H129.551L128.426 16.7502H125.748L131.351 1.09016H134.321L139.923 16.7502H137.223L136.098 13.5552ZM135.378 11.4627L132.836 4.19516L130.271 11.4627H135.378Z" stroke="#1F252A" stroke-width="0.2" mask="url(#path-1-outside-1)"/>
<path d="M146.274 14.6802H151.562V16.7502H143.709V1.11266H146.274V14.6802Z" stroke="#1F252A" stroke-width="0.2" mask="url(#path-1-outside-1)"/>
<path d="M166.644 1.11266L161.469 11.0802V16.7502H158.904V11.0802L153.707 1.11266H156.564L160.187 8.78516L163.809 1.11266H166.644Z" stroke="#1F252A" stroke-width="0.2" mask="url(#path-1-outside-1)"/>
<path d="M175.182 16.9077C174.132 16.9077 173.187 16.7277 172.347 16.3677C171.507 15.9927 170.847 15.4677 170.367 14.7927C169.887 14.1177 169.647 13.3302 169.647 12.4302H172.392C172.452 13.1052 172.715 13.6602 173.18 14.0952C173.66 14.5302 174.327 14.7477 175.182 14.7477C176.067 14.7477 176.757 14.5377 177.252 14.1177C177.747 13.6827 177.995 13.1277 177.995 12.4527C177.995 11.9277 177.837 11.5002 177.522 11.1702C177.222 10.8402 176.84 10.5852 176.375 10.4052C175.925 10.2252 175.295 10.0302 174.485 9.82016C173.465 9.55016 172.632 9.28016 171.987 9.01016C171.357 8.72516 170.817 8.29016 170.367 7.70516C169.917 7.12016 169.692 6.34016 169.692 5.36516C169.692 4.46516 169.917 3.67766 170.367 3.00266C170.817 2.32766 171.447 1.81016 172.257 1.45016C173.067 1.09016 174.005 0.910156 175.07 0.910156C176.585 0.910156 177.822 1.29266 178.782 2.05766C179.757 2.80766 180.297 3.84266 180.402 5.16266H177.567C177.522 4.59266 177.252 4.10516 176.757 3.70016C176.262 3.29516 175.61 3.09266 174.8 3.09266C174.065 3.09266 173.465 3.28016 173 3.65516C172.535 4.03016 172.302 4.57016 172.302 5.27516C172.302 5.75516 172.445 6.15266 172.73 6.46766C173.03 6.76766 173.405 7.00766 173.855 7.18766C174.305 7.36766 174.92 7.56266 175.7 7.77266C176.735 8.05766 177.575 8.34266 178.22 8.62766C178.88 8.91266 179.435 9.35515 179.885 9.95516C180.35 10.5402 180.582 11.3277 180.582 12.3177C180.582 13.1127 180.365 13.8627 179.93 14.5677C179.51 15.2727 178.887 15.8427 178.062 16.2777C177.252 16.6977 176.292 16.9077 175.182 16.9077Z" stroke="#1F252A" stroke-width="0.2" mask="url(#path-1-outside-1)"/>
<path d="M195.061 1.11266V3.20516H190.899V16.7502H188.334V3.20516H184.149V1.11266H195.061Z" stroke="#1F252A" stroke-width="0.2" mask="url(#path-1-outside-1)"/>
</svg>
