<svg width="22" height="20" viewBox="0 0 22 20" fill="none" xmlns="http://www.w3.org/2000/svg">
<path d="M14.7369 6.3158C16.4119 6.3158 18.0184 6.98121 19.2028 8.16565C20.3872 9.35009 21.0527 10.9565 21.0527 12.6316V20H16.8421V12.6316C16.8421 12.0732 16.6203 11.5378 16.2255 11.1429C15.8307 10.7481 15.2952 10.5263 14.7369 10.5263C14.1785 10.5263 13.643 10.7481 13.2482 11.1429C12.8534 11.5378 12.6316 12.0732 12.6316 12.6316V20H8.42108V12.6316C8.42108 10.9565 9.08649 9.35009 10.2709 8.16565C11.4554 6.98121 13.0618 6.3158 14.7369 6.3158Z" fill="#1C2126"/>
<path d="M4.21053 7.36841H0V20H4.21053V7.36841Z" fill="#1C2126"/>
<path d="M2.10526 4.21053C3.26797 4.21053 4.21053 3.26797 4.21053 2.10526C4.21053 0.942558 3.26797 0 2.10526 0C0.942558 0 0 0.942558 0 2.10526C0 3.26797 0.942558 4.21053 2.10526 4.21053Z" fill="#1C2126"/>
</svg>
