<svg width="104" height="21" viewBox="0 0 104 21" fill="none" xmlns="http://www.w3.org/2000/svg">
<path d="M11 0H8C6.67392 0 5.40215 0.526784 4.46447 1.46447C3.52678 2.40215 3 3.67392 3 5V8H0V12H3V20H7V12H10L11 8H7V5C7 4.73478 7.10536 4.48043 7.29289 4.29289C7.48043 4.10536 7.73478 4 8 4H11V0Z" fill="#1C2126"/>
<path d="M51.7369 6.3158C53.4119 6.3158 55.0184 6.98121 56.2028 8.16565C57.3872 9.35009 58.0527 10.9565 58.0527 12.6316V20H53.8421V12.6316C53.8421 12.0732 53.6203 11.5378 53.2255 11.1429C52.8307 10.7481 52.2952 10.5263 51.7369 10.5263C51.1785 10.5263 50.643 10.7481 50.2482 11.1429C49.8534 11.5378 49.6316 12.0732 49.6316 12.6316V20H45.4211V12.6316C45.4211 10.9565 46.0865 9.35009 47.2709 8.16565C48.4554 6.98121 50.0618 6.3158 51.7369 6.3158Z" fill="#1C2126"/>
<path d="M41.2105 7.36841H37V20H41.2105V7.36841Z" fill="#1C2126"/>
<path d="M39.1053 4.21053C40.268 4.21053 41.2105 3.26797 41.2105 2.10526C41.2105 0.942558 40.268 0 39.1053 0C37.9426 0 37 0.942558 37 2.10526C37 3.26797 37.9426 4.21053 39.1053 4.21053Z" fill="#1C2126"/>
<path d="M98.5 2H89.5C87.0147 2 85 4.01472 85 6.5V15.5C85 17.9853 87.0147 20 89.5 20H98.5C100.985 20 103 17.9853 103 15.5V6.5C103 4.01472 100.985 2 98.5 2Z" fill="#1C2126" stroke="#1C2126" stroke-linecap="round" stroke-linejoin="round"/>
<path d="M97.5992 10.4333C97.7102 11.1823 97.5823 11.9473 97.2336 12.6194C96.8848 13.2915 96.333 13.8365 95.6566 14.177C94.9803 14.5174 94.2138 14.6359 93.4662 14.5156C92.7186 14.3953 92.028 14.0423 91.4925 13.5069C90.9571 12.9715 90.6041 12.2809 90.4838 11.5333C90.3635 10.7857 90.482 10.0192 90.8225 9.34281C91.1629 8.66644 91.7079 8.11464 92.3801 7.76589C93.0522 7.41714 93.8172 7.2892 94.5662 7.40027C95.3302 7.51357 96.0375 7.86959 96.5837 8.41575C97.1299 8.96191 97.4859 9.66924 97.5992 10.4333Z" fill="#1C2126" stroke="#F3F5F0" stroke-width="2" stroke-linecap="round" stroke-linejoin="round"/>
<path d="M99.8508 6.05038H99.8608" stroke="#F3F5F0" stroke-width="2.5" stroke-linecap="round" stroke-linejoin="round"/>
</svg>
