<svg width="260" height="54" viewBox="0 0 260 54" fill="none" xmlns="http://www.w3.org/2000/svg">
<path d="M7.75257 10.4336V43.0171M15.047 31.767V47.497M21.7793 27.8432V52M29.6538 23.3508V47.5076M37.5103 18.8628V43.0195M43.6814 15.4859L7.72399 36.2717M36.966 10.9935L7.75257 27.2857M30.782 6.49674L7.75257 19.4187M22.3478 2L1 14.3593V39.6396L22.3478 51.9989L44.2574 39.6396L43.6956 14.3593L22.3478 2Z" stroke="#12614F" stroke-width="2"/>
<mask id="path-2-outside-1" maskUnits="userSpaceOnUse" x="63.582" y="18.9102" width="196" height="18" fill="black">
<rect fill="white" x="63.582" y="18.9102" width="196" height="18"/>
<path d="M64.582 27.8977C64.582 26.3677 64.9345 24.9952 65.6395 23.7802C66.3595 22.5652 67.327 21.6202 68.542 20.9452C69.772 20.2552 71.1145 19.9102 72.5695 19.9102C74.2345 19.9102 75.712 20.3227 77.002 21.1477C78.307 21.9577 79.252 23.1127 79.837 24.6127H76.7545C76.3495 23.7877 75.787 23.1727 75.067 22.7677C74.347 22.3627 73.5145 22.1602 72.5695 22.1602C71.5345 22.1602 70.612 22.3927 69.802 22.8577C68.992 23.3227 68.3545 23.9902 67.8895 24.8602C67.4395 25.7302 67.2145 26.7427 67.2145 27.8977C67.2145 29.0527 67.4395 30.0652 67.8895 30.9352C68.3545 31.8052 68.992 32.4802 69.802 32.9602C70.612 33.4252 71.5345 33.6577 72.5695 33.6577C73.5145 33.6577 74.347 33.4552 75.067 33.0502C75.787 32.6452 76.3495 32.0302 76.7545 31.2052H79.837C79.252 32.7052 78.307 33.8602 77.002 34.6702C75.712 35.4802 74.2345 35.8852 72.5695 35.8852C71.0995 35.8852 69.757 35.5477 68.542 34.8727C67.327 34.1827 66.3595 33.2302 65.6395 32.0152C64.9345 30.8002 64.582 29.4277 64.582 27.8977Z"/>
<path d="M91.3219 35.9077C89.8669 35.9077 88.5244 35.5702 87.2944 34.8952C86.0794 34.2052 85.1119 33.2527 84.3919 32.0377C83.6869 30.8077 83.3344 29.4277 83.3344 27.8977C83.3344 26.3677 83.6869 24.9952 84.3919 23.7802C85.1119 22.5652 86.0794 21.6202 87.2944 20.9452C88.5244 20.2552 89.8669 19.9102 91.3219 19.9102C92.7919 19.9102 94.1344 20.2552 95.3494 20.9452C96.5794 21.6202 97.5469 22.5652 98.2519 23.7802C98.9569 24.9952 99.3094 26.3677 99.3094 27.8977C99.3094 29.4277 98.9569 30.8077 98.2519 32.0377C97.5469 33.2527 96.5794 34.2052 95.3494 34.8952C94.1344 35.5702 92.7919 35.9077 91.3219 35.9077ZM91.3219 33.6802C92.3569 33.6802 93.2794 33.4477 94.0894 32.9827C94.8994 32.5027 95.5294 31.8277 95.9794 30.9577C96.4444 30.0727 96.6769 29.0527 96.6769 27.8977C96.6769 26.7427 96.4444 25.7302 95.9794 24.8602C95.5294 23.9902 94.8994 23.3227 94.0894 22.8577C93.2794 22.3927 92.3569 22.1602 91.3219 22.1602C90.2869 22.1602 89.3644 22.3927 88.5544 22.8577C87.7444 23.3227 87.1069 23.9902 86.6419 24.8602C86.1919 25.7302 85.9669 26.7427 85.9669 27.8977C85.9669 29.0527 86.1919 30.0727 86.6419 30.9577C87.1069 31.8277 87.7444 32.5027 88.5544 32.9827C89.3644 33.4477 90.2869 33.6802 91.3219 33.6802Z"/>
<path d="M108.291 20.1127C109.956 20.1127 111.411 20.4352 112.656 21.0802C113.916 21.7102 114.883 22.6252 115.558 23.8252C116.248 25.0102 116.593 26.3977 116.593 27.9877C116.593 29.5777 116.248 30.9577 115.558 32.1277C114.883 33.2977 113.916 34.1977 112.656 34.8277C111.411 35.4427 109.956 35.7502 108.291 35.7502H103.183V20.1127H108.291ZM108.291 33.6577C110.121 33.6577 111.523 33.1627 112.498 32.1727C113.473 31.1827 113.961 29.7877 113.961 27.9877C113.961 26.1727 113.473 24.7552 112.498 23.7352C111.523 22.7152 110.121 22.2052 108.291 22.2052H105.748V33.6577H108.291Z"/>
<path d="M123.051 22.1827V26.7727H128.451V28.8652H123.051V33.6577H129.126V35.7502H120.486V20.0902H129.126V22.1827H123.051Z"/>
<path d="M139.975 27.8977C139.975 26.3677 140.327 24.9952 141.032 23.7802C141.752 22.5652 142.72 21.6202 143.935 20.9452C145.165 20.2552 146.507 19.9102 147.962 19.9102C149.627 19.9102 151.105 20.3227 152.395 21.1477C153.7 21.9577 154.645 23.1127 155.23 24.6127H152.147C151.742 23.7877 151.18 23.1727 150.46 22.7677C149.74 22.3627 148.907 22.1602 147.962 22.1602C146.927 22.1602 146.005 22.3927 145.195 22.8577C144.385 23.3227 143.747 23.9902 143.282 24.8602C142.832 25.7302 142.607 26.7427 142.607 27.8977C142.607 29.0527 142.832 30.0652 143.282 30.9352C143.747 31.8052 144.385 32.4802 145.195 32.9602C146.005 33.4252 146.927 33.6577 147.962 33.6577C148.907 33.6577 149.74 33.4552 150.46 33.0502C151.18 32.6452 151.742 32.0302 152.147 31.2052H155.23C154.645 32.7052 153.7 33.8602 152.395 34.6702C151.105 35.4802 149.627 35.8852 147.962 35.8852C146.492 35.8852 145.15 35.5477 143.935 34.8727C142.72 34.1827 141.752 33.2302 141.032 32.0152C140.327 30.8002 139.975 29.4277 139.975 27.8977Z"/>
<path d="M169.009 32.5552H162.462L161.337 35.7502H158.659L164.262 20.0902H167.232L172.834 35.7502H170.134L169.009 32.5552ZM168.289 30.4627L165.747 23.1952L163.182 30.4627H168.289Z"/>
<path d="M186.723 20.1127V22.2052H182.56V35.7502H179.995V22.2052H175.81V20.1127H186.723Z"/>
<path d="M200.098 32.5552H193.551L192.426 35.7502H189.748L195.351 20.0902H198.321L203.923 35.7502H201.223L200.098 32.5552ZM199.378 30.4627L196.836 23.1952L194.271 30.4627H199.378Z"/>
<path d="M210.274 33.6802H215.562V35.7502H207.709V20.1127H210.274V33.6802Z"/>
<path d="M230.644 20.1127L225.469 30.0802V35.7502H222.904V30.0802L217.707 20.1127H220.564L224.187 27.7852L227.809 20.1127H230.644Z"/>
<path d="M239.182 35.9077C238.132 35.9077 237.187 35.7277 236.347 35.3677C235.507 34.9927 234.847 34.4677 234.367 33.7927C233.887 33.1177 233.647 32.3302 233.647 31.4302H236.392C236.452 32.1052 236.715 32.6602 237.18 33.0952C237.66 33.5302 238.327 33.7477 239.182 33.7477C240.067 33.7477 240.757 33.5377 241.252 33.1177C241.747 32.6827 241.995 32.1277 241.995 31.4527C241.995 30.9277 241.837 30.5002 241.522 30.1702C241.222 29.8402 240.84 29.5852 240.375 29.4052C239.925 29.2252 239.295 29.0302 238.485 28.8202C237.465 28.5502 236.632 28.2802 235.987 28.0102C235.357 27.7252 234.817 27.2902 234.367 26.7052C233.917 26.1202 233.692 25.3402 233.692 24.3652C233.692 23.4652 233.917 22.6777 234.367 22.0027C234.817 21.3277 235.447 20.8102 236.257 20.4502C237.067 20.0902 238.005 19.9102 239.07 19.9102C240.585 19.9102 241.822 20.2927 242.782 21.0577C243.757 21.8077 244.297 22.8427 244.402 24.1627H241.567C241.522 23.5927 241.252 23.1052 240.757 22.7002C240.262 22.2952 239.61 22.0927 238.8 22.0927C238.065 22.0927 237.465 22.2802 237 22.6552C236.535 23.0302 236.302 23.5702 236.302 24.2752C236.302 24.7552 236.445 25.1527 236.73 25.4677C237.03 25.7677 237.405 26.0077 237.855 26.1877C238.305 26.3677 238.92 26.5627 239.7 26.7727C240.735 27.0577 241.575 27.3427 242.22 27.6277C242.88 27.9127 243.435 28.3552 243.885 28.9552C244.35 29.5402 244.582 30.3277 244.582 31.3177C244.582 32.1127 244.365 32.8627 243.93 33.5677C243.51 34.2727 242.887 34.8427 242.062 35.2777C241.252 35.6977 240.292 35.9077 239.182 35.9077Z"/>
<path d="M259.061 20.1127V22.2052H254.899V35.7502H252.334V22.2052H248.149V20.1127H259.061Z"/>
</mask>
<path d="M64.582 27.8977C64.582 26.3677 64.9345 24.9952 65.6395 23.7802C66.3595 22.5652 67.327 21.6202 68.542 20.9452C69.772 20.2552 71.1145 19.9102 72.5695 19.9102C74.2345 19.9102 75.712 20.3227 77.002 21.1477C78.307 21.9577 79.252 23.1127 79.837 24.6127H76.7545C76.3495 23.7877 75.787 23.1727 75.067 22.7677C74.347 22.3627 73.5145 22.1602 72.5695 22.1602C71.5345 22.1602 70.612 22.3927 69.802 22.8577C68.992 23.3227 68.3545 23.9902 67.8895 24.8602C67.4395 25.7302 67.2145 26.7427 67.2145 27.8977C67.2145 29.0527 67.4395 30.0652 67.8895 30.9352C68.3545 31.8052 68.992 32.4802 69.802 32.9602C70.612 33.4252 71.5345 33.6577 72.5695 33.6577C73.5145 33.6577 74.347 33.4552 75.067 33.0502C75.787 32.6452 76.3495 32.0302 76.7545 31.2052H79.837C79.252 32.7052 78.307 33.8602 77.002 34.6702C75.712 35.4802 74.2345 35.8852 72.5695 35.8852C71.0995 35.8852 69.757 35.5477 68.542 34.8727C67.327 34.1827 66.3595 33.2302 65.6395 32.0152C64.9345 30.8002 64.582 29.4277 64.582 27.8977Z" fill="#1F252A"/>
<path d="M91.3219 35.9077C89.8669 35.9077 88.5244 35.5702 87.2944 34.8952C86.0794 34.2052 85.1119 33.2527 84.3919 32.0377C83.6869 30.8077 83.3344 29.4277 83.3344 27.8977C83.3344 26.3677 83.6869 24.9952 84.3919 23.7802C85.1119 22.5652 86.0794 21.6202 87.2944 20.9452C88.5244 20.2552 89.8669 19.9102 91.3219 19.9102C92.7919 19.9102 94.1344 20.2552 95.3494 20.9452C96.5794 21.6202 97.5469 22.5652 98.2519 23.7802C98.9569 24.9952 99.3094 26.3677 99.3094 27.8977C99.3094 29.4277 98.9569 30.8077 98.2519 32.0377C97.5469 33.2527 96.5794 34.2052 95.3494 34.8952C94.1344 35.5702 92.7919 35.9077 91.3219 35.9077ZM91.3219 33.6802C92.3569 33.6802 93.2794 33.4477 94.0894 32.9827C94.8994 32.5027 95.5294 31.8277 95.9794 30.9577C96.4444 30.0727 96.6769 29.0527 96.6769 27.8977C96.6769 26.7427 96.4444 25.7302 95.9794 24.8602C95.5294 23.9902 94.8994 23.3227 94.0894 22.8577C93.2794 22.3927 92.3569 22.1602 91.3219 22.1602C90.2869 22.1602 89.3644 22.3927 88.5544 22.8577C87.7444 23.3227 87.1069 23.9902 86.6419 24.8602C86.1919 25.7302 85.9669 26.7427 85.9669 27.8977C85.9669 29.0527 86.1919 30.0727 86.6419 30.9577C87.1069 31.8277 87.7444 32.5027 88.5544 32.9827C89.3644 33.4477 90.2869 33.6802 91.3219 33.6802Z" fill="#1F252A"/>
<path d="M108.291 20.1127C109.956 20.1127 111.411 20.4352 112.656 21.0802C113.916 21.7102 114.883 22.6252 115.558 23.8252C116.248 25.0102 116.593 26.3977 116.593 27.9877C116.593 29.5777 116.248 30.9577 115.558 32.1277C114.883 33.2977 113.916 34.1977 112.656 34.8277C111.411 35.4427 109.956 35.7502 108.291 35.7502H103.183V20.1127H108.291ZM108.291 33.6577C110.121 33.6577 111.523 33.1627 112.498 32.1727C113.473 31.1827 113.961 29.7877 113.961 27.9877C113.961 26.1727 113.473 24.7552 112.498 23.7352C111.523 22.7152 110.121 22.2052 108.291 22.2052H105.748V33.6577H108.291Z" fill="#1F252A"/>
<path d="M123.051 22.1827V26.7727H128.451V28.8652H123.051V33.6577H129.126V35.7502H120.486V20.0902H129.126V22.1827H123.051Z" fill="#1F252A"/>
<path d="M139.975 27.8977C139.975 26.3677 140.327 24.9952 141.032 23.7802C141.752 22.5652 142.72 21.6202 143.935 20.9452C145.165 20.2552 146.507 19.9102 147.962 19.9102C149.627 19.9102 151.105 20.3227 152.395 21.1477C153.7 21.9577 154.645 23.1127 155.23 24.6127H152.147C151.742 23.7877 151.18 23.1727 150.46 22.7677C149.74 22.3627 148.907 22.1602 147.962 22.1602C146.927 22.1602 146.005 22.3927 145.195 22.8577C144.385 23.3227 143.747 23.9902 143.282 24.8602C142.832 25.7302 142.607 26.7427 142.607 27.8977C142.607 29.0527 142.832 30.0652 143.282 30.9352C143.747 31.8052 144.385 32.4802 145.195 32.9602C146.005 33.4252 146.927 33.6577 147.962 33.6577C148.907 33.6577 149.74 33.4552 150.46 33.0502C151.18 32.6452 151.742 32.0302 152.147 31.2052H155.23C154.645 32.7052 153.7 33.8602 152.395 34.6702C151.105 35.4802 149.627 35.8852 147.962 35.8852C146.492 35.8852 145.15 35.5477 143.935 34.8727C142.72 34.1827 141.752 33.2302 141.032 32.0152C140.327 30.8002 139.975 29.4277 139.975 27.8977Z" fill="#1F252A"/>
<path d="M169.009 32.5552H162.462L161.337 35.7502H158.659L164.262 20.0902H167.232L172.834 35.7502H170.134L169.009 32.5552ZM168.289 30.4627L165.747 23.1952L163.182 30.4627H168.289Z" fill="#1F252A"/>
<path d="M186.723 20.1127V22.2052H182.56V35.7502H179.995V22.2052H175.81V20.1127H186.723Z" fill="#1F252A"/>
<path d="M200.098 32.5552H193.551L192.426 35.7502H189.748L195.351 20.0902H198.321L203.923 35.7502H201.223L200.098 32.5552ZM199.378 30.4627L196.836 23.1952L194.271 30.4627H199.378Z" fill="#1F252A"/>
<path d="M210.274 33.6802H215.562V35.7502H207.709V20.1127H210.274V33.6802Z" fill="#1F252A"/>
<path d="M230.644 20.1127L225.469 30.0802V35.7502H222.904V30.0802L217.707 20.1127H220.564L224.187 27.7852L227.809 20.1127H230.644Z" fill="#1F252A"/>
<path d="M239.182 35.9077C238.132 35.9077 237.187 35.7277 236.347 35.3677C235.507 34.9927 234.847 34.4677 234.367 33.7927C233.887 33.1177 233.647 32.3302 233.647 31.4302H236.392C236.452 32.1052 236.715 32.6602 237.18 33.0952C237.66 33.5302 238.327 33.7477 239.182 33.7477C240.067 33.7477 240.757 33.5377 241.252 33.1177C241.747 32.6827 241.995 32.1277 241.995 31.4527C241.995 30.9277 241.837 30.5002 241.522 30.1702C241.222 29.8402 240.84 29.5852 240.375 29.4052C239.925 29.2252 239.295 29.0302 238.485 28.8202C237.465 28.5502 236.632 28.2802 235.987 28.0102C235.357 27.7252 234.817 27.2902 234.367 26.7052C233.917 26.1202 233.692 25.3402 233.692 24.3652C233.692 23.4652 233.917 22.6777 234.367 22.0027C234.817 21.3277 235.447 20.8102 236.257 20.4502C237.067 20.0902 238.005 19.9102 239.07 19.9102C240.585 19.9102 241.822 20.2927 242.782 21.0577C243.757 21.8077 244.297 22.8427 244.402 24.1627H241.567C241.522 23.5927 241.252 23.1052 240.757 22.7002C240.262 22.2952 239.61 22.0927 238.8 22.0927C238.065 22.0927 237.465 22.2802 237 22.6552C236.535 23.0302 236.302 23.5702 236.302 24.2752C236.302 24.7552 236.445 25.1527 236.73 25.4677C237.03 25.7677 237.405 26.0077 237.855 26.1877C238.305 26.3677 238.92 26.5627 239.7 26.7727C240.735 27.0577 241.575 27.3427 242.22 27.6277C242.88 27.9127 243.435 28.3552 243.885 28.9552C244.35 29.5402 244.582 30.3277 244.582 31.3177C244.582 32.1127 244.365 32.8627 243.93 33.5677C243.51 34.2727 242.887 34.8427 242.062 35.2777C241.252 35.6977 240.292 35.9077 239.182 35.9077Z" fill="#1F252A"/>
<path d="M259.061 20.1127V22.2052H254.899V35.7502H252.334V22.2052H248.149V20.1127H259.061Z" fill="#1F252A"/>
<path d="M64.582 27.8977C64.582 26.3677 64.9345 24.9952 65.6395 23.7802C66.3595 22.5652 67.327 21.6202 68.542 20.9452C69.772 20.2552 71.1145 19.9102 72.5695 19.9102C74.2345 19.9102 75.712 20.3227 77.002 21.1477C78.307 21.9577 79.252 23.1127 79.837 24.6127H76.7545C76.3495 23.7877 75.787 23.1727 75.067 22.7677C74.347 22.3627 73.5145 22.1602 72.5695 22.1602C71.5345 22.1602 70.612 22.3927 69.802 22.8577C68.992 23.3227 68.3545 23.9902 67.8895 24.8602C67.4395 25.7302 67.2145 26.7427 67.2145 27.8977C67.2145 29.0527 67.4395 30.0652 67.8895 30.9352C68.3545 31.8052 68.992 32.4802 69.802 32.9602C70.612 33.4252 71.5345 33.6577 72.5695 33.6577C73.5145 33.6577 74.347 33.4552 75.067 33.0502C75.787 32.6452 76.3495 32.0302 76.7545 31.2052H79.837C79.252 32.7052 78.307 33.8602 77.002 34.6702C75.712 35.4802 74.2345 35.8852 72.5695 35.8852C71.0995 35.8852 69.757 35.5477 68.542 34.8727C67.327 34.1827 66.3595 33.2302 65.6395 32.0152C64.9345 30.8002 64.582 29.4277 64.582 27.8977Z" stroke="#1F252A" stroke-width="0.2" mask="url(#path-2-outside-1)"/>
<path d="M91.3219 35.9077C89.8669 35.9077 88.5244 35.5702 87.2944 34.8952C86.0794 34.2052 85.1119 33.2527 84.3919 32.0377C83.6869 30.8077 83.3344 29.4277 83.3344 27.8977C83.3344 26.3677 83.6869 24.9952 84.3919 23.7802C85.1119 22.5652 86.0794 21.6202 87.2944 20.9452C88.5244 20.2552 89.8669 19.9102 91.3219 19.9102C92.7919 19.9102 94.1344 20.2552 95.3494 20.9452C96.5794 21.6202 97.5469 22.5652 98.2519 23.7802C98.9569 24.9952 99.3094 26.3677 99.3094 27.8977C99.3094 29.4277 98.9569 30.8077 98.2519 32.0377C97.5469 33.2527 96.5794 34.2052 95.3494 34.8952C94.1344 35.5702 92.7919 35.9077 91.3219 35.9077ZM91.3219 33.6802C92.3569 33.6802 93.2794 33.4477 94.0894 32.9827C94.8994 32.5027 95.5294 31.8277 95.9794 30.9577C96.4444 30.0727 96.6769 29.0527 96.6769 27.8977C96.6769 26.7427 96.4444 25.7302 95.9794 24.8602C95.5294 23.9902 94.8994 23.3227 94.0894 22.8577C93.2794 22.3927 92.3569 22.1602 91.3219 22.1602C90.2869 22.1602 89.3644 22.3927 88.5544 22.8577C87.7444 23.3227 87.1069 23.9902 86.6419 24.8602C86.1919 25.7302 85.9669 26.7427 85.9669 27.8977C85.9669 29.0527 86.1919 30.0727 86.6419 30.9577C87.1069 31.8277 87.7444 32.5027 88.5544 32.9827C89.3644 33.4477 90.2869 33.6802 91.3219 33.6802Z" stroke="#1F252A" stroke-width="0.2" mask="url(#path-2-outside-1)"/>
<path d="M108.291 20.1127C109.956 20.1127 111.411 20.4352 112.656 21.0802C113.916 21.7102 114.883 22.6252 115.558 23.8252C116.248 25.0102 116.593 26.3977 116.593 27.9877C116.593 29.5777 116.248 30.9577 115.558 32.1277C114.883 33.2977 113.916 34.1977 112.656 34.8277C111.411 35.4427 109.956 35.7502 108.291 35.7502H103.183V20.1127H108.291ZM108.291 33.6577C110.121 33.6577 111.523 33.1627 112.498 32.1727C113.473 31.1827 113.961 29.7877 113.961 27.9877C113.961 26.1727 113.473 24.7552 112.498 23.7352C111.523 22.7152 110.121 22.2052 108.291 22.2052H105.748V33.6577H108.291Z" stroke="#1F252A" stroke-width="0.2" mask="url(#path-2-outside-1)"/>
<path d="M123.051 22.1827V26.7727H128.451V28.8652H123.051V33.6577H129.126V35.7502H120.486V20.0902H129.126V22.1827H123.051Z" stroke="#1F252A" stroke-width="0.2" mask="url(#path-2-outside-1)"/>
<path d="M139.975 27.8977C139.975 26.3677 140.327 24.9952 141.032 23.7802C141.752 22.5652 142.72 21.6202 143.935 20.9452C145.165 20.2552 146.507 19.9102 147.962 19.9102C149.627 19.9102 151.105 20.3227 152.395 21.1477C153.7 21.9577 154.645 23.1127 155.23 24.6127H152.147C151.742 23.7877 151.18 23.1727 150.46 22.7677C149.74 22.3627 148.907 22.1602 147.962 22.1602C146.927 22.1602 146.005 22.3927 145.195 22.8577C144.385 23.3227 143.747 23.9902 143.282 24.8602C142.832 25.7302 142.607 26.7427 142.607 27.8977C142.607 29.0527 142.832 30.0652 143.282 30.9352C143.747 31.8052 144.385 32.4802 145.195 32.9602C146.005 33.4252 146.927 33.6577 147.962 33.6577C148.907 33.6577 149.74 33.4552 150.46 33.0502C151.18 32.6452 151.742 32.0302 152.147 31.2052H155.23C154.645 32.7052 153.7 33.8602 152.395 34.6702C151.105 35.4802 149.627 35.8852 147.962 35.8852C146.492 35.8852 145.15 35.5477 143.935 34.8727C142.72 34.1827 141.752 33.2302 141.032 32.0152C140.327 30.8002 139.975 29.4277 139.975 27.8977Z" stroke="#1F252A" stroke-width="0.2" mask="url(#path-2-outside-1)"/>
<path d="M169.009 32.5552H162.462L161.337 35.7502H158.659L164.262 20.0902H167.232L172.834 35.7502H170.134L169.009 32.5552ZM168.289 30.4627L165.747 23.1952L163.182 30.4627H168.289Z" stroke="#1F252A" stroke-width="0.2" mask="url(#path-2-outside-1)"/>
<path d="M186.723 20.1127V22.2052H182.56V35.7502H179.995V22.2052H175.81V20.1127H186.723Z" stroke="#1F252A" stroke-width="0.2" mask="url(#path-2-outside-1)"/>
<path d="M200.098 32.5552H193.551L192.426 35.7502H189.748L195.351 20.0902H198.321L203.923 35.7502H201.223L200.098 32.5552ZM199.378 30.4627L196.836 23.1952L194.271 30.4627H199.378Z" stroke="#1F252A" stroke-width="0.2" mask="url(#path-2-outside-1)"/>
<path d="M210.274 33.6802H215.562V35.7502H207.709V20.1127H210.274V33.6802Z" stroke="#1F252A" stroke-width="0.2" mask="url(#path-2-outside-1)"/>
<path d="M230.644 20.1127L225.469 30.0802V35.7502H222.904V30.0802L217.707 20.1127H220.564L224.187 27.7852L227.809 20.1127H230.644Z" stroke="#1F252A" stroke-width="0.2" mask="url(#path-2-outside-1)"/>
<path d="M239.182 35.9077C238.132 35.9077 237.187 35.7277 236.347 35.3677C235.507 34.9927 234.847 34.4677 234.367 33.7927C233.887 33.1177 233.647 32.3302 233.647 31.4302H236.392C236.452 32.1052 236.715 32.6602 237.18 33.0952C237.66 33.5302 238.327 33.7477 239.182 33.7477C240.067 33.7477 240.757 33.5377 241.252 33.1177C241.747 32.6827 241.995 32.1277 241.995 31.4527C241.995 30.9277 241.837 30.5002 241.522 30.1702C241.222 29.8402 240.84 29.5852 240.375 29.4052C239.925 29.2252 239.295 29.0302 238.485 28.8202C237.465 28.5502 236.632 28.2802 235.987 28.0102C235.357 27.7252 234.817 27.2902 234.367 26.7052C233.917 26.1202 233.692 25.3402 233.692 24.3652C233.692 23.4652 233.917 22.6777 234.367 22.0027C234.817 21.3277 235.447 20.8102 236.257 20.4502C237.067 20.0902 238.005 19.9102 239.07 19.9102C240.585 19.9102 241.822 20.2927 242.782 21.0577C243.757 21.8077 244.297 22.8427 244.402 24.1627H241.567C241.522 23.5927 241.252 23.1052 240.757 22.7002C240.262 22.2952 239.61 22.0927 238.8 22.0927C238.065 22.0927 237.465 22.2802 237 22.6552C236.535 23.0302 236.302 23.5702 236.302 24.2752C236.302 24.7552 236.445 25.1527 236.73 25.4677C237.03 25.7677 237.405 26.0077 237.855 26.1877C238.305 26.3677 238.92 26.5627 239.7 26.7727C240.735 27.0577 241.575 27.3427 242.22 27.6277C242.88 27.9127 243.435 28.3552 243.885 28.9552C244.35 29.5402 244.582 30.3277 244.582 31.3177C244.582 32.1127 244.365 32.8627 243.93 33.5677C243.51 34.2727 242.887 34.8427 242.062 35.2777C241.252 35.6977 240.292 35.9077 239.182 35.9077Z" stroke="#1F252A" stroke-width="0.2" mask="url(#path-2-outside-1)"/>
<path d="M259.061 20.1127V22.2052H254.899V35.7502H252.334V22.2052H248.149V20.1127H259.061Z" stroke="#1F252A" stroke-width="0.2" mask="url(#path-2-outside-1)"/>
</svg>
