<svg width="20" height="20" viewBox="0 0 20 20" fill="none" xmlns="http://www.w3.org/2000/svg">
<path d="M14.5 1H5.5C3.01472 1 1 3.01472 1 5.5V14.5C1 16.9853 3.01472 19 5.5 19H14.5C16.9853 19 19 16.9853 19 14.5V5.5C19 3.01472 16.9853 1 14.5 1Z" fill="#1C2126" stroke="#1C2126" stroke-linecap="round" stroke-linejoin="round"/>
<path d="M13.5992 9.43327C13.7102 10.1823 13.5823 10.9473 13.2336 11.6194C12.8848 12.2915 12.333 12.8365 11.6566 13.177C10.9803 13.5174 10.2138 13.6359 9.46618 13.5156C8.71859 13.3953 8.02796 13.0423 7.49253 12.5069C6.9571 11.9715 6.60413 11.2809 6.48384 10.5333C6.36354 9.78567 6.48203 9.01918 6.82247 8.34281C7.1629 7.66644 7.70794 7.11464 8.38006 6.76589C9.05218 6.41714 9.81715 6.2892 10.5662 6.40027C11.3302 6.51357 12.0375 6.86959 12.5837 7.41575C13.1299 7.96191 13.4859 8.66924 13.5992 9.43327Z" fill="#1C2126" stroke="#F3F5F0" stroke-width="2" stroke-linecap="round" stroke-linejoin="round"/>
<path d="M15.8508 5.05038H15.8608" stroke="#F3F5F0" stroke-width="2.5" stroke-linecap="round" stroke-linejoin="round"/>
</svg>
