<svg width="51" height="50" viewBox="0 0 51 50" fill="none" xmlns="http://www.w3.org/2000/svg">
<circle cx="25.477" cy="25" r="25" fill="#FF4E00"/>
<mask id="mask0" mask-type="alpha" maskUnits="userSpaceOnUse" x="0" y="0" width="51" height="50">
<circle cx="25.477" cy="25" r="25" fill="#FF4E00"/>
</mask>
<g mask="url(#mask0)">
<path d="M29.4462 25.7071C29.8368 25.3166 29.8368 24.6834 29.4462 24.2929L23.0823 17.9289C22.6918 17.5384 22.0586 17.5384 21.6681 17.9289C21.2775 18.3195 21.2775 18.9526 21.6681 19.3431L27.3249 25L21.6681 30.6569C21.2775 31.0474 21.2775 31.6805 21.6681 32.0711C22.0586 32.4616 22.6918 32.4616 23.0823 32.0711L29.4462 25.7071ZM-18 26L28.7391 26L28.7391 24L-18 24L-18 26Z" fill="#F3F5F0"/>
</g>
</svg>
